<svg width="76" height="76" fill="none" xmlns="http://www.w3.org/2000/svg"><path d="M24.328 30.371h-4.594a.594.594 0 0 0-.594.594v4.623l-9.381 5.12a.593.593 0 0 0-.31.522v1.866a.594.594 0 0 0 .712.582L30.484 39.6l3.075.066c.182 4.512.504 9.726 1.068 14.474l-9.01 4.71a.595.595 0 0 0-.319.526v3.123a.594.594 0 0 0 .733.577l9.634-2.323a20.674 20.674 0 0 0 2.019 6.056.595.595 0 0 0 1.015 0 20.78 20.78 0 0 0 2.027-6.096l9.808 2.365a.594.594 0 0 0 .733-.577v-3.125a.593.593 0 0 0-.32-.526l-9.182-4.8c.559-4.731.877-9.916 1.058-14.399l3.394-.05 19.63 4.078a.594.594 0 0 0 .713-.582V41.23a.594.594 0 0 0-.306-.52l-9.529-5.282v-4.463a.593.593 0 0 0-.593-.594h-4.59a.594.594 0 0 0-.594.594v1.257l-7.86-4.357c1.306-17.383-4.38-18.89-4.624-18.945a.602.602 0 0 0-.256 0c-.257.056-6.225 1.56-4.908 18.942l-8.373 4.57v-1.467a.595.595 0 0 0-.599-.594zm-4 1.188h3.406v1.52l-3.407 1.86v-3.38zm10.116 6.851a.83.83 0 0 0-.13.012l-19.678 3.95v-.79L33.318 29.2c0 1.64.04 5.08.192 9.276l-3.066-.066zm-3.958 23.34v-2.02l8.297-4.337c.192 1.468.408 2.876.653 4.19l-8.95 2.167zm23.59-2.02v2.02l-9.125-2.2c.247-1.328.464-2.753.656-4.237l8.47 4.418zm15.297-17.364-18.981-3.944a.67.67 0 0 0-.13-.011l-3.396.05c.152-4.206.185-7.642.191-9.254L65.373 41.58v.786zM52.136 31.559h3.407v3.206l-3.407-1.885V31.56zM38.323 10.132c.798.388 4.75 3.088 3.55 18.07 0 .296.047 28.461-3.682 36.994-3.73-8.532-3.681-36.694-3.681-37.043v-.01c-1.206-14.962 2.977-17.632 3.813-18.01z" fill="#95151B"/></svg>