<svg width="56" height="56" fill="none" xmlns="http://www.w3.org/2000/svg"><path d="M50.707 40.866H5.3a.757.757 0 0 1-.757-.757V12.866a3.788 3.788 0 0 1 3.784-3.784H47.68a3.788 3.788 0 0 1 3.783 3.784v27.243a.757.757 0 0 1-.756.757zm-44.65-1.514H49.95V12.866a2.27 2.27 0 0 0-2.27-2.27H8.328a2.27 2.27 0 0 0-2.27 2.27v26.486z" fill="#121212"/><path d="M47.677 37.84H8.325a.757.757 0 0 1-.756-.757V12.867a.757.757 0 0 1 .756-.757h39.352a.757.757 0 0 1 .757.757v24.216a.756.756 0 0 1-.757.757zM9.082 36.327H46.92V13.624H9.082v22.703zM49.95 46.92H6.058a4.546 4.546 0 0 1-4.54-4.541v-2.27a.757.757 0 0 1 .756-.757h51.46a.757.757 0 0 1 .757.756v2.27a4.546 4.546 0 0 1-4.541 4.541zM3.031 40.864v1.514a3.027 3.027 0 0 0 3.027 3.027H49.95a3.027 3.027 0 0 0 3.027-3.027v-1.514H3.031z" fill="#121212"/><path d="M27.318 33.3a.756.756 0 0 1-.689-.444L19.75 17.72a.756.756 0 0 1 1.003-1.001l15.135 6.88a.756.756 0 0 1-.165 1.43l-6.384 1.278-1.278 6.387a.757.757 0 0 1-.742.605zM21.963 18.93l5.07 11.162.916-4.579a.756.756 0 0 1 .593-.593l4.58-.916-11.159-5.074z" fill="#121212"/><path d="m28.148 26.198 1.07-1.07 6.878 6.878-1.07 1.07-6.878-6.878z" fill="#121212"/></svg>