<svg width="76" height="76" fill="none" xmlns="http://www.w3.org/2000/svg"><path d="M49.261 51.666H25.602a.594.594 0 0 1 0-1.187h23.065V22.552a1.819 1.819 0 0 0-1.818-1.817H11.912a1.82 1.82 0 0 0-1.818 1.817v26.11a1.82 1.82 0 0 0 1.818 1.817h4.14a.594.594 0 1 1 0 1.187h-4.14a3.008 3.008 0 0 1-3.006-3.004v-26.11a3.008 3.008 0 0 1 3.006-3.004h34.937a3.008 3.008 0 0 1 3.006 3.004v28.52a.594.594 0 0 1-.594.594z" fill="#121212"/><path d="M53.094 51.666h-3.832a.593.593 0 1 1 0-1.188h3.832a.594.594 0 0 1 0 1.188zM66.501 51.666h-3.833a.594.594 0 1 1 0-1.188h3.24V37.82l-6.76-10.278h-9.886a.594.594 0 0 1 0-1.188h10.206a.594.594 0 0 1 .496.269l7.034 10.687c.063.097.097.21.097.326v13.43a.593.593 0 0 1-.594.6z" fill="#121212"/><path d="M57.881 56.453a5.375 5.375 0 1 1 0-10.749 5.375 5.375 0 0 1 0 10.75zm0-9.56a4.188 4.188 0 1 0 0 8.376 4.188 4.188 0 0 0 0-8.376z" fill="#121212"/><path d="M57.881 54.031a2.95 2.95 0 1 1 0-5.898 2.95 2.95 0 0 1 0 5.898zm0-4.708a1.761 1.761 0 1 0 1.628 1.086 1.762 1.762 0 0 0-1.628-1.09v.004zM20.824 56.453a5.376 5.376 0 0 1-1.05-10.646 5.375 5.375 0 0 1 6.424 5.273 5.38 5.38 0 0 1-5.374 5.373zm0-9.56a4.187 4.187 0 1 0-.002 8.374 4.187 4.187 0 0 0 .002-8.374z" fill="#121212"/><path d="M20.824 54.031a2.949 2.949 0 1 1-.002-5.897 2.949 2.949 0 0 1 .002 5.897zm0-4.708a1.76 1.76 0 1 0 1.76 1.761 1.763 1.763 0 0 0-1.76-1.766v.005zM66.497 38.238H53.791a.594.594 0 0 1-.594-.594V26.956a.593.593 0 1 1 1.188 0V37.05h12.112a.593.593 0 1 1 0 1.188zM49.261 43.834H9.5a.594.594 0 0 1 0-1.188h39.761a.594.594 0 0 1 0 1.188z" fill="#121212"/></svg>