<svg width="54" height="72" fill="none" xmlns="http://www.w3.org/2000/svg"><path d="M33.842 5.809a1 1 0 1 0-.793 1.836l.793-1.836zm-1.326 59.097a1 1 0 0 0 .56 1.298l8.366 3.32a1 1 0 0 0 .738-1.86l-7.436-2.95 2.95-7.436a1 1 0 0 0-1.86-.738l-3.318 8.366zm.533-57.261C44.027 12.386 51.705 23.299 51.705 36h2c0-13.529-8.18-25.146-19.863-30.192l-.793 1.836zM51.705 36c0 12.7-7.678 23.614-18.656 28.356l.793 1.836C45.525 61.146 53.705 49.529 53.705 36h-2z" fill="#121212"/><circle cx="20.748" cy="4.801" r="3.467" stroke="#121212" stroke-width="2"/><circle cx="20.748" cy="67.201" r="3.467" stroke="#121212" stroke-width="2"/><path d="M20.37 16.742a4.815 4.815 0 0 0 0 9.63 4.815 4.815 0 0 1 4.814 4.815M39.608 36h-9.63a4.815 4.815 0 0 1-4.814-4.814M20.348 55.26a4.815 4.815 0 0 0 0-9.63 4.815 4.815 0 0 1-4.814-4.815A4.815 4.815 0 0 0 10.719 36" stroke="#121212" stroke-width="2" stroke-miterlimit="10" stroke-linecap="round" stroke-linejoin="round"/><path d="M20.353 55.26c10.637 0 19.26-8.622 19.26-19.259 0-10.636-8.623-19.259-19.26-19.259-10.637 0-19.26 8.623-19.26 19.26 0 10.636 8.623 19.259 19.26 19.259z" stroke="#121212" stroke-width="2" stroke-miterlimit="10" stroke-linecap="round" stroke-linejoin="round"/></svg>