<svg width="80" height="80" fill="none" xmlns="http://www.w3.org/2000/svg"><circle cx="40.748" cy="8.801" r="3.467" stroke="#121212" stroke-width="2"/><circle cx="40.748" cy="71.201" r="3.467" stroke="#121212" stroke-width="2"/><path d="M28.189 11.095a1 1 0 0 0-.561-1.298l-8.366-3.319a1 1 0 0 0-.737 1.86l7.436 2.95-2.95 7.436a1 1 0 1 0 1.859.737l3.319-8.366zm-1.326 59.098a1 1 0 0 0 .793-1.836l-.793 1.836zM9 40c0-12.702 7.678-23.615 18.656-28.356l-.793-1.836C15.179 14.855 7 26.472 7 40h2zm18.656 28.356C16.678 63.615 9 52.702 9 40H7c0 13.528 8.18 25.145 19.863 30.192l.793-1.836z" fill="#121212"/><path d="M40.37 20.742a4.815 4.815 0 0 0 0 9.63 4.815 4.815 0 0 1 4.814 4.815M59.608 40h-9.63a4.815 4.815 0 0 1-4.814-4.815M40.348 59.26a4.815 4.815 0 0 0 0-9.63 4.815 4.815 0 0 1-4.814-4.815A4.815 4.815 0 0 0 30.719 40" stroke="#121212" stroke-width="2" stroke-miterlimit="10" stroke-linecap="round" stroke-linejoin="round"/><path d="M40.353 59.26c10.637 0 19.26-8.622 19.26-19.259 0-10.636-8.623-19.259-19.26-19.259-10.637 0-19.26 8.623-19.26 19.26 0 10.636 8.623 19.259 19.26 19.259z" stroke="#121212" stroke-width="2" stroke-miterlimit="10" stroke-linecap="round" stroke-linejoin="round"/></svg>