<svg width="76" height="76" fill="none" xmlns="http://www.w3.org/2000/svg"><path d="M52.572 56.001H23.425a5.671 5.671 0 0 1-5.664-5.664V15.692a4.298 4.298 0 0 1 4.292-4.292h31.892a4.297 4.297 0 0 1 4.292 4.292v34.645A5.67 5.67 0 0 1 52.572 56zM22.053 12.486a3.21 3.21 0 0 0-3.206 3.206v34.645a4.585 4.585 0 0 0 4.578 4.578h29.147a4.584 4.584 0 0 0 4.579-4.578V15.692a3.21 3.21 0 0 0-3.206-3.206H22.053z" fill="#121212"/><path d="M49.642 41.69H26.346a4.01 4.01 0 0 1-4.005-4.005V22.972a4.01 4.01 0 0 1 4.005-4.005h23.296a4.01 4.01 0 0 1 4.005 4.006v14.71a4.01 4.01 0 0 1-4.005 4.007zM26.346 20.053a2.923 2.923 0 0 0-2.919 2.92v14.71a2.923 2.923 0 0 0 2.92 2.922h23.295a2.923 2.923 0 0 0 2.92-2.92V22.972a2.923 2.923 0 0 0-2.92-2.919H26.346zM42.71 16.27h-9.408a.543.543 0 0 1 0-1.086h9.408a.543.543 0 1 1 0 1.086zM48.316 52.374a4.071 4.071 0 1 1 0-8.142 4.071 4.071 0 0 1 0 8.142zm0-7.057a2.986 2.986 0 1 0 0 5.972 2.986 2.986 0 0 0 0-5.972zM27.69 52.374a4.072 4.072 0 1 1 0-8.143 4.072 4.072 0 0 1 0 8.143zm0-7.057a2.986 2.986 0 1 0 0 5.973 2.986 2.986 0 0 0 0-5.973zM41.21 48.845h-6.419a.543.543 0 1 1 0-1.086h6.42a.543.543 0 1 1 0 1.086zM55.1 64.602a.544.544 0 0 1-.52-.39l-2.524-8.6a.543.543 0 0 1 1.041-.305l2.525 8.599a.544.544 0 0 1-.522.696zM20.9 64.6a.529.529 0 0 1-.34-.12.543.543 0 0 1-.18-.577l2.524-8.599a.542.542 0 1 1 1.041.306l-2.524 8.6a.543.543 0 0 1-.52.39z" fill="#121212"/><path d="M53.84 60.3H22.168a.543.543 0 0 1 0-1.086h31.67a.543.543 0 1 1 0 1.086z" fill="#121212"/></svg>