<svg width="76" height="76" fill="none" xmlns="http://www.w3.org/2000/svg"><path d="M27.438 55.14a.543.543 0 0 1-.514-.368l-5.102-15a.544.544 0 0 1 .225-.634l15.668-9.853a.542.542 0 0 1 .578 0l15.666 9.853a.543.543 0 0 1 .225.634l-5.103 14.974a.543.543 0 0 1-1.028-.35l4.963-14.568-15.017-9.442-15.016 9.445 4.97 14.595a.543.543 0 0 1-.34.688.525.525 0 0 1-.175.026z" fill="#121212"/><path d="M46.996 35.938a.543.543 0 0 1-.543-.543V22.417H29.551v12.978a.543.543 0 1 1-1.086 0v-13.52a.543.543 0 0 1 .543-.544h17.988a.543.543 0 0 1 .543.543v13.52a.543.543 0 0 1-.543.544z" fill="#121212"/><path d="M44.483 22.416H31.526a.543.543 0 0 1-.543-.543v-5.78a.543.543 0 0 1 .543-.542h12.957a.543.543 0 0 1 .543.543v5.779a.543.543 0 0 1-.543.543zM32.069 21.33h11.87v-4.693H32.07v4.693z" fill="#121212"/><path d="M38 16.637a.543.543 0 0 1-.542-.543v-4.151a.543.543 0 1 1 1.085 0v4.152a.543.543 0 0 1-.543.542zM38 53.988a.543.543 0 0 1-.542-.543V29.747a.543.543 0 0 1 1.085 0v23.698a.543.543 0 0 1-.543.543zM40.057 26.03h-4.11a.543.543 0 1 1 0-1.086h4.11a.543.543 0 1 1 0 1.086zM57.54 64.6c-1.894 0-2.847-1.218-3.691-2.293-.787-1.006-1.467-1.876-2.833-1.876s-2.043.869-2.83 1.876c-.84 1.075-1.792 2.293-3.69 2.293-1.9 0-2.844-1.218-3.683-2.293-.785-1.006-1.465-1.876-2.823-1.876-1.358 0-2.043.869-2.823 1.876-.84 1.075-1.792 2.293-3.685 2.293s-2.845-1.218-3.684-2.293c-.786-1.006-1.464-1.876-2.828-1.876-1.364 0-2.041.869-2.823 1.876-.84 1.075-1.791 2.293-3.684 2.293-1.892 0-2.844-1.218-3.684-2.293-.786-1.006-1.464-1.876-2.828-1.876a.543.543 0 1 1 0-1.086c1.893 0 2.845 1.218 3.684 2.293.775 1.008 1.454 1.876 2.82 1.876 1.365 0 2.04-.868 2.828-1.876.838-1.075 1.79-2.293 3.682-2.293 1.893 0 2.845 1.218 3.684 2.293.786 1.007 1.465 1.876 2.823 1.876 1.358 0 2.044-.868 2.83-1.876.839-1.075 1.791-2.293 3.683-2.293 1.893 0 2.844 1.218 3.683 2.293.786 1.007 1.465 1.876 2.823 1.876 1.358 0 2.043-.868 2.83-1.876.84-1.075 1.792-2.293 3.685-2.293 1.894 0 2.848 1.218 3.692 2.293.791 1.008 1.47 1.876 2.842 1.876 1.371 0 2.044-.868 2.833-1.876.84-1.075 1.792-2.293 3.691-2.293a.543.543 0 0 1 0 1.086c-1.364 0-2.045.869-2.831 1.876-.851 1.075-1.804 2.293-3.693 2.293z" fill="#121212"/><path d="M57.54 58.16c-1.894 0-2.846-1.218-3.691-2.293-.787-1.007-1.467-1.877-2.833-1.877s-2.043.87-2.83 1.877c-.84 1.075-1.792 2.293-3.69 2.293-1.9 0-2.844-1.218-3.683-2.293-.785-1.007-1.465-1.877-2.823-1.877-1.358 0-2.043.87-2.823 1.877-.84 1.075-1.791 2.293-3.685 2.293-1.893 0-2.845-1.218-3.684-2.293-.786-1.007-1.464-1.877-2.828-1.877-1.364 0-2.041.87-2.823 1.877-.84 1.075-1.791 2.293-3.684 2.293-1.892 0-2.844-1.218-3.684-2.293-.786-1.007-1.464-1.877-2.828-1.877a.543.543 0 1 1 0-1.085c1.893 0 2.845 1.218 3.684 2.293.786 1.006 1.464 1.876 2.828 1.876 1.364 0 2.041-.869 2.828-1.876.839-1.075 1.79-2.293 3.683-2.293 1.893 0 2.845 1.218 3.684 2.293.786 1.006 1.465 1.876 2.823 1.876 1.358 0 2.043-.869 2.83-1.876.839-1.075 1.79-2.293 3.683-2.293 1.892 0 2.844 1.218 3.683 2.293.786 1.006 1.465 1.876 2.823 1.876 1.358 0 2.043-.869 2.83-1.876.84-1.075 1.792-2.293 3.685-2.293 1.894 0 2.848 1.218 3.691 2.293.788 1.006 1.467 1.876 2.833 1.876s2.044-.869 2.833-1.876c.84-1.075 1.792-2.293 3.691-2.293a.543.543 0 1 1 0 1.085c-1.364 0-2.045.87-2.831 1.877-.85 1.075-1.803 2.293-3.692 2.293z" fill="#121212"/></svg>