<svg width="215" height="73" fill="none" xmlns="http://www.w3.org/2000/svg"><g clip-path="url(#a)"><path fill-rule="evenodd" clip-rule="evenodd" d="M109.596 42.543v-12.11l-.112-3.12-.365-2.493-.669-1.93-1.039-1.45-1.445-1.016-1.93-.642-2.434-.339-2.996-.102-.348 9.688.348 7.303.445 1.413.642 1.244.87 1.061 1.141.892 1.449.691 1.784.508 2.14.303 2.519.099zm-8.717-20.51h1.436l1.222.25 1.016.5.825.7 1.177 1.944.633 2.523.259 6.015-.17 6.09-1.56-.143-1.311-.365-1.083-.558-.856-.744-1.186-1.944-.589-2.457-.169-2.804.089-3.005.183-3.04.084-2.961zM114.746 33.256V21.624l2.421.258 1.846.919.678.78.495 1.025.307 1.338.112 1.614-.125 1.73-.361 1.337-.566.981-.736.678-1.864.695-2.207.277zM112 42.543h2.746V35.11l2.435-.089 2.122-.37 1.721-.793 1.199-1.338.611-2.26.143-3.121-.312-3.121-.794-2.167-.941-.91-1.163-.677-1.311-.446-1.4-.272-2.782-.192H112v23.189zM124.062 21.204h4.561v18.931l.099 1.275.396.723.794.338 1.275.072V21.205h4.94v-1.85h-12.065v1.85zM178.805 25.93v16.613h2.648l.054-16.657.147-1.106.388-.883.619-.69.816-.5 2.158-.53 2.666-.045v20.41h2.568V19.355l-4.217.032-3.888.61-1.596.745-1.253 1.177-.816 1.694-.294 2.319zM82.313 25.458v9.75l.272 2.296.891 1.392 1.596.69 2.372.192v2.782h2.648v-2.782l2.386-.272 1.783-.891.647-.687.477-.892.28-1.06.103-1.267v-9.073l-.125-1.337-.347-1.013-.531-.78-.704-.566-1.797-.597-2.171-.148v-1.854l-.692-.67-.445-.258-.228-.035H87.44v2.782l-2.26.156-1.605.624-.95 1.302-.311 2.216zm7.78-1.868h3.357v13.888h-3.358V23.59zm-5.68 0h3.12v13.888h-3.12V23.59zM146.934 35.066l-.125 2.073-.464 1.498-.744 1.008-1.013.642-2.585.463-3.099.01v1.783h4.886l1.516-.188 1.195-.53.941-.812.686-1.034.781-2.461.205-2.568V19.408h-2.466l-.044 12.809-2.399-.174-1.899-.433-.709-.445-.531-.651-.33-.914-.111-1.213v-8.98h-2.648v9.979l.191 1.658.535 1.258.834.9 1.11.642 2.849.736 3.438.486zM151.172 42.542h2.657v-7.115h6.492v7.115h2.715V19.416h-2.715v13.345h-6.492V19.416h-2.657v23.126zM173.787 21.704v11.552h-5.765v-7.798l.147-1.164.393-.892.61-.668.781-.446 1.863-.446 1.971-.138zm-8.435 4.396v16.443h2.768V35.11h5.667v7.433h2.675V19.359l-3.932-.072-3.567.446-1.445.705-1.141 1.23-.736 1.846-.289 2.586zM205.719 42.543h2.577V21.205h6.705v-1.85h-9.282v23.188zM204.047 42.542V30.433l-.116-3.12-.361-2.502-.665-1.93-1.016-1.45-1.44-1.016-1.886-.642-2.408-.339-2.965-.102-.338 9.688.338 7.303.446 1.413.633 1.244.856 1.061 1.133.892 1.427.691 1.752.508 2.113.303 2.497.107zm-8.605-20.508h1.422l1.204.25 1.003.499.816.7 1.15 1.944.633 2.523.25 6.014-.16 6.09-1.548-.142-1.288-.366-1.083-.557-.848-.744-1.177-1.944-.575-2.457-.169-2.804.089-3.005.169-3.041.112-2.96z" fill="#5F5C5D"/><path d="M145.022 46.8h-.731v6.447h.731v.393h-1.217v-7.227h1.217v.388zM145.445 48.61h.535l.892 3.148 1.048-3.147h.468l1.114 3.147.892-3.147h.491l-1.106 3.758h-.504l-1.128-3.076-1.052 3.076h-.504l-1.146-3.758zM151.172 48.61h.539l.914 3.148 1.053-3.147h.445l1.115 3.147.892-3.147h.486l-1.106 3.758h-.468l-1.124-3.076-1.047 3.076h-.504l-1.195-3.758zM156.898 48.61h.54l.892 3.148 1.047-3.147h.446l1.119 3.147.892-3.147h.49l-1.047 3.758h-.504l-1.124-3.076-1.052 3.076h-.504l-1.195-3.758zM162.727 52.03a.378.378 0 0 1 .115-.28.4.4 0 0 1 .553 0 .397.397 0 0 1 .116.28.39.39 0 0 1-.392.393.394.394 0 0 1-.392-.392zM165.108 49.03h-.78v-.446h.78V47.38a1.433 1.433 0 0 1 .112-.606c.064-.146.156-.278.272-.388a.961.961 0 0 1 .365-.205c.307-.095.638-.083.937.035l-.098.424a.984.984 0 0 0-.446-.08c-.446 0-.66.33-.66.998v1.053h.892v.445h-.892v3.322h-.491l.009-3.348zM167.031 50.492c-.002-.271.046-.54.143-.794.094-.233.231-.447.406-.628.179-.18.393-.319.628-.41.254-.1.525-.15.798-.148.272-.002.542.047.794.148.235.092.449.232.629.41.177.18.316.394.41.628.196.51.196 1.074 0 1.583a1.85 1.85 0 0 1-.41.629c-.18.177-.394.317-.629.41a2.012 2.012 0 0 1-.794.147 2.035 2.035 0 0 1-.798-.147 1.832 1.832 0 0 1-.628-.41 1.893 1.893 0 0 1-.406-.629 2.171 2.171 0 0 1-.143-.79zm.486 0c-.002.204.032.406.103.597a1.373 1.373 0 0 0 .771.816c.194.086.404.129.615.125.214.003.425-.039.62-.125a1.38 1.38 0 0 0 .767-.816 1.69 1.69 0 0 0 .103-.597 1.646 1.646 0 0 0-.103-.598 1.354 1.354 0 0 0-.294-.49 1.44 1.44 0 0 0-.473-.33 1.553 1.553 0 0 0-.62-.125 1.515 1.515 0 0 0-1.092.455c-.132.14-.232.308-.294.49-.07.192-.103.394-.098.598h-.005zM172.078 49.667v-1.056h.491v.405a1.2 1.2 0 0 0 0 .254c.118-.215.282-.403.481-.548.211-.144.462-.217.718-.21a.692.692 0 0 1 .138 0l.147.027-.062.482a.554.554 0 0 0-.187-.036 1.384 1.384 0 0 0-.549.103 1.11 1.11 0 0 0-.379.28 1.2 1.2 0 0 0-.227.42 1.81 1.81 0 0 0-.072.517v2.05h-.486l-.013-2.688zM176.626 49.03h-1.079v2.452a.537.537 0 0 0 .139.392.513.513 0 0 0 .383.138c.095 0 .19-.014.281-.04.094-.022.185-.053.272-.093l.04.446a2.779 2.779 0 0 1-.317.089 1.449 1.449 0 0 1-.316.04 1.163 1.163 0 0 1-.446-.076.786.786 0 0 1-.468-.513 1.468 1.468 0 0 1-.049-.379V49.03h-.816v-.446h.816V47.5h.481v1.084h1.075l.004.446zM180.679 51.312V52.37h-.491v-.406c.008-.084.008-.17 0-.254h-.026a1.273 1.273 0 0 1-.491.535c-.237.15-.513.228-.793.223a1.619 1.619 0 0 1-.723-.138 1.148 1.148 0 0 1-.445-.361 1.375 1.375 0 0 1-.214-.518c-.04-.198-.059-.4-.058-.601v-2.23h.49v2.23c0 .15.013.298.04.446.023.135.071.265.143.383a.742.742 0 0 0 .285.276.985.985 0 0 0 .477.103c.174 0 .346-.031.508-.094.159-.062.3-.16.415-.285.123-.14.217-.304.276-.482.072-.218.107-.447.103-.677v-1.882h.486l.018 2.675zM182.023 49.667V48.61h.486v.406c.001.085.009.17.023.254h.026c.108-.22.277-.407.486-.535.239-.15.516-.228.798-.223.247-.01.493.038.718.139.177.08.33.205.446.36.11.155.186.332.223.518.04.198.059.4.058.602v2.229h-.486v-2.23c0-.149-.013-.298-.04-.445a1.17 1.17 0 0 0-.143-.384.742.742 0 0 0-.285-.276 1.04 1.04 0 0 0-.477-.102c-.174-.001-.346.03-.508.093-.159.062-.3.16-.415.285-.123.141-.217.305-.276.482-.072.22-.107.45-.103.682v1.877h-.486l-.045-2.675zM189.473 50.813v.905c0 .125 0 .24.022.352.005.108.017.215.036.321h-.446a3.674 3.674 0 0 1-.045-.61 1.386 1.386 0 0 1-.526.539 1.622 1.622 0 0 1-.793.17c-.163 0-.324-.02-.482-.059a1.356 1.356 0 0 1-.423-.196 1.028 1.028 0 0 1-.424-.86.999.999 0 0 1 .223-.682c.146-.169.331-.299.539-.38.219-.084.449-.14.682-.164.241-.023.446-.036.643-.036h.57v-.227a.796.796 0 0 0-.303-.7 1.311 1.311 0 0 0-.758-.214 1.721 1.721 0 0 0-1.146.446l-.285-.33a1.72 1.72 0 0 1 .669-.397c.245-.086.502-.131.762-.134.39-.02.776.093 1.092.321a1.238 1.238 0 0 1 .406 1.039l-.013.896zm-.977-.308c-.199 0-.399.014-.597.04-.179.023-.355.07-.522.139a1.002 1.002 0 0 0-.37.258.611.611 0 0 0-.138.41.618.618 0 0 0 .276.522.981.981 0 0 0 .58.178c.22.007.438-.032.642-.115.154-.067.292-.167.401-.295.101-.122.172-.265.21-.419.037-.153.057-.31.058-.468v-.25h-.54zM190.859 46.216h.486v6.153h-.486v-6.153zM192.516 50.492a2.054 2.054 0 0 1 .147-.794c.092-.234.23-.448.406-.628.178-.18.392-.32.628-.41.254-.1.525-.15.798-.148.272-.002.541.047.794.148.234.091.447.231.624.41.179.178.319.393.41.628.196.51.196 1.074 0 1.583-.09.236-.23.45-.41.629a1.81 1.81 0 0 1-.624.41 2.012 2.012 0 0 1-.794.147 2.035 2.035 0 0 1-.798-.147c-.236-.09-.45-.23-.628-.41a1.843 1.843 0 0 1-.406-.629 2.07 2.07 0 0 1-.147-.79zm.49 0c-.002.204.032.406.103.597a1.385 1.385 0 0 0 .767.816c.195.086.406.128.619.125.212.004.422-.039.616-.125a1.369 1.369 0 0 0 .771-.816c.068-.191.103-.394.102-.597a1.714 1.714 0 0 0-.102-.598 1.368 1.368 0 0 0-.771-.82 1.52 1.52 0 0 0-.616-.125 1.544 1.544 0 0 0-.619.125 1.43 1.43 0 0 0-.473.33c-.132.14-.232.308-.294.49a1.646 1.646 0 0 0-.103.598zM201.342 52.15c.015.387-.053.772-.201 1.129-.115.26-.29.49-.512.668-.193.153-.417.261-.656.317-.207.052-.419.08-.633.085a2.78 2.78 0 0 1-1.074-.21 2.024 2.024 0 0 1-.446-.25 1.738 1.738 0 0 1-.344-.33l.384-.36c.163.236.388.423.651.539.262.113.544.17.829.17.214.006.427-.027.629-.099.164-.053.316-.14.446-.254.106-.1.194-.22.258-.352.06-.123.106-.251.138-.384a2.2 2.2 0 0 0 .054-.36v-.799c-.14.229-.339.415-.575.54a1.782 1.782 0 0 1-.847.191 2.1 2.1 0 0 1-.785-.147 2.06 2.06 0 0 1-1.083-1.03 1.776 1.776 0 0 1-.161-.749 1.777 1.777 0 0 1 .161-.749c.107-.23.259-.438.445-.61.186-.176.402-.316.638-.415.248-.106.515-.16.785-.156.294-.008.586.06.847.196.236.123.435.308.575.535v-.633h.486l-.009 3.518zm-.473-1.685c.001-.2-.039-.399-.116-.584a1.645 1.645 0 0 0-.316-.472 1.49 1.49 0 0 0-.473-.317 1.438 1.438 0 0 0-.584-.12 1.418 1.418 0 0 0-.579.12c-.178.072-.339.18-.473.317a1.59 1.59 0 0 0-.321.472 1.52 1.52 0 0 0 0 1.164c.076.176.185.337.321.473.134.136.295.244.473.316.182.08.38.121.579.12.201.002.4-.04.584-.12.177-.074.337-.182.473-.316.133-.138.24-.298.316-.473.081-.19.12-.395.116-.602v.022zM202.555 52.03a.39.39 0 0 1 .113-.279.39.39 0 0 1 .279-.113.38.38 0 0 1 .388.392.383.383 0 0 1-.388.392.368.368 0 0 1-.276-.115.383.383 0 0 1-.116-.277zM204.648 49.667v-1.056h.486v.405c.001.085.009.17.023.254.118-.215.283-.403.481-.548.21-.143.46-.217.714-.21a.732.732 0 0 1 .142 0c.05.005.099.014.147.027l-.058.482a.598.598 0 0 0-.191-.036 1.384 1.384 0 0 0-.549.103 1.175 1.175 0 0 0-.383.28c-.1.125-.176.267-.223.42a1.774 1.774 0 0 0-.071.517v2.05h-.491l-.027-2.688zM210.545 51.312V52.37h-.491v-.406a1.204 1.204 0 0 0-.022-.254h-.022a1.34 1.34 0 0 1-.486.535c-.239.151-.516.228-.798.223a1.614 1.614 0 0 1-.722-.138 1.101 1.101 0 0 1-.446-.361 1.257 1.257 0 0 1-.219-.518 3.377 3.377 0 0 1-.058-.601v-2.23h.491v2.23c-.001.15.013.298.04.446.024.135.073.264.142.383a.71.71 0 0 0 .286.276.985.985 0 0 0 .477.103c.174 0 .346-.031.508-.094.158-.062.3-.16.415-.285.123-.14.217-.304.276-.482.072-.218.107-.447.103-.677v-1.882h.486l.04 2.675zM211.531 53.247h.731V46.8h-.731v-.387h1.222v7.227h-1.222v-.393z" fill="#95151B"/><path fill-rule="evenodd" clip-rule="evenodd" d="m72.111 4.89-.482-1.14-.74-1.035-.985-.892-1.204-.74-1.364-.552-1.502-.362-1.628-.182H8.074L6.451.116 4.936.477 3.57 1.03l-1.204.74-.98.892-.754 1.07L.161 4.89 0 6.117V63.02l.2 1.949.576 1.814.891 1.645 1.173 1.436 1.413 1.172 1.619.892 1.783.58 1.917.192h53.176l1.913-.192 1.783-.58 1.632-.891 1.418-1.173 1.164-1.436.891-1.645.553-1.814.21-1.949V6.1l-.201-1.21zm-8.756 24.38c0 .04 0 .093-.027.142-.914 4.726-4.592 8.137-8.605 10.553-2.93 1.744-6.117 2.88-9.318 4.013.111 3.723.24 7.441.04 11.146-.049.852-.803 9.648-1.583 9.6l-3.567-.143c.995.03-1.573-18.093-2.153-17.923-7.535 2.108-16.496 4.324-23.487-.517A13.255 13.255 0 0 1 9.75 31.285c1.453-4.195 4.846-7.495 8.653-9.635.772-.446 8.966-3.629 8.966-3.727l-1.984-7.263 11.057-3.41s2.328 8.132 2.417 8.47c.584.562 4.342 0 5.136-.022 2.127 0 4.302-.138 6.438.031.062 0 .2 1.904.232 2.114-1.106.151-10.79.642-10.7 1.096 1.181 5.315 2.889 11.147 4.413 16.314.099.343 1.231 3.7 1.004 3.812 6.718-3.25 18.373-6.639 14.351-16.545-.954-2.35-3.321-3.794-5.76-4.156 0 0 .473-1.337.495-1.422.21-.633 3.687.834 3.87.923a8.431 8.431 0 0 1 4.013 4.302c.891 1.895 1.386 5.016 1.012 7.085l-.01.018z" fill="#95151B"/><path fill-rule="evenodd" clip-rule="evenodd" d="M62.382 22.154a8.43 8.43 0 0 0-4.013-4.302c-.183-.09-3.66-1.556-3.87-.923 0 .071-.495 1.422-.495 1.422 2.439.361 4.806 1.783 5.76 4.155 4.013 9.907-7.632 13.295-14.351 16.546.227-.112-.892-3.47-1.003-3.812-1.525-5.163-3.233-11-4.414-16.314-.098-.446 9.585-.945 10.7-1.097-.031-.21-.17-2.104-.232-2.113-2.135-.17-4.311-.049-6.438-.031-.793 0-4.552.584-5.136.022-.09-.325-2.416-8.47-2.416-8.47L25.385 10.66l1.984 7.263c0 .098-8.194 3.3-8.965 3.727-3.813 2.14-7.2 5.44-8.645 9.64a13.255 13.255 0 0 0 4.904 14.855c7 4.842 15.952 2.626 23.487.517.58-.17 3.148 17.954 2.153 17.923l3.567.143c.78.049 1.534-8.748 1.583-9.6.2-3.722.071-7.44-.04-11.145 3.2-1.12 6.389-2.256 9.318-4.013 4.013-2.416 7.704-5.827 8.627-10.57 0-.05 0-.103.027-.144.352-2.073-.143-5.194-1.003-7.102zm-34.05 21.44c-3.21.264-6.415-.08-9.362-1.453-4.276-2.006-6.661-7.133-3.772-11.35 2.006-2.93 6.366-5.351 9.599-6.662l3.981-1.654s7.299 19.689 7.308 19.697c.009.01-7.183 1.374-7.754 1.423z" fill="#fff"/><path fill-rule="evenodd" clip-rule="evenodd" d="M36.103 42.172c0 .05-7.2 1.374-7.771 1.423-3.21.263-6.416-.08-9.363-1.454-4.276-2.006-6.66-7.133-3.772-11.35 2.007-2.93 6.367-5.351 9.6-6.662l3.98-1.654s7.317 19.689 7.326 19.697z" fill="#95151B"/></g><defs><clipPath id="a"><path fill="#fff" d="M0 0h215v72.7H0z"/></clipPath></defs></svg>