<svg width="60" height="60" fill="none" xmlns="http://www.w3.org/2000/svg"><path d="M54.326 58.378H5.677a4.054 4.054 0 0 1-4.054-4.054V5.676a4.054 4.054 0 0 1 4.054-4.054h48.649a4.054 4.054 0 0 1 4.054 4.054v48.648a4.054 4.054 0 0 1-4.054 4.054zM5.677 3.243a2.432 2.432 0 0 0-2.432 2.433v48.648a2.433 2.433 0 0 0 2.432 2.433h48.649a2.432 2.432 0 0 0 2.432-2.433V5.676a2.432 2.432 0 0 0-2.432-2.433H5.677z" fill="#121212"/><path d="M30 42.082a.81.81 0 0 1-.811-.811V18.73a.81.81 0 0 1 1.621 0v22.54a.81.81 0 0 1-.81.81zM30 58.379a.81.81 0 0 1-.811-.81v-10.46a.81.81 0 1 1 1.621 0v10.46a.81.81 0 0 1-.81.81zM30 13.703a.81.81 0 0 1-.811-.811V2.432a.81.81 0 1 1 1.621 0v10.46a.81.81 0 0 1-.81.81z" fill="#121212"/><path d="M40.865 30.81h-22.54a.81.81 0 1 1 0-1.621h22.54a.81.81 0 1 1 0 1.621zM12.488 30.81H2.434a.81.81 0 1 1 0-1.621h10.054a.81.81 0 1 1 0 1.621z" fill="#121212"/><path d="M57.566 30.81H46.701a.81.81 0 0 1 0-1.621h10.865a.81.81 0 1 1 0 1.621z" fill="#000"/><path d="M46.702 30.811a.81.81 0 0 1-.414-1.508 4.816 4.816 0 0 0 2.36-4.168 4.865 4.865 0 1 0-9.73 0 4.816 4.816 0 0 0 2.36 4.168.811.811 0 1 1-.811 1.395 6.486 6.486 0 1 1 6.664 0 .811.811 0 0 1-.43.113zM15.405 41.351a6.487 6.487 0 0 1-3.332-12.048.811.811 0 1 1 .81 1.394 4.816 4.816 0 0 0-2.342 4.168 4.865 4.865 0 0 0 9.73 0 4.816 4.816 0 0 0-2.36-4.168.81.81 0 0 1 .81-1.394 6.486 6.486 0 0 1-3.316 12.048zM34.865 50.675a6.487 6.487 0 0 1-5.563-3.154.811.811 0 1 1 1.395-.81 4.817 4.817 0 0 0 4.168 2.343 4.865 4.865 0 0 0 0-9.73 4.816 4.816 0 0 0-4.168 2.36.81.81 0 1 1-1.395-.812 6.486 6.486 0 1 1 5.563 9.803zM25.134 22.297a6.487 6.487 0 1 1 5.562-9.82.81.81 0 0 1-.903 1.25.81.81 0 0 1-.492-.438 4.816 4.816 0 0 0-4.167-2.344 4.865 4.865 0 1 0 0 9.73 4.817 4.817 0 0 0 4.167-2.36.811.811 0 0 1 1.395.811 6.485 6.485 0 0 1-5.562 3.17z" fill="#000"/></svg>