<svg width="60" height="60" fill="none" xmlns="http://www.w3.org/2000/svg"><path d="M30 16.216a48.65 48.65 0 0 1-20.322-4.468.811.811 0 1 1 .673-1.476A47.027 47.027 0 0 0 30 14.594a46.94 46.94 0 0 0 16.157-2.878.81.81 0 1 1 .556 1.524A48.563 48.563 0 0 1 30 16.216zM49.985 49.8a.811.811 0 0 1-.337-.073 47.472 47.472 0 0 0-5.883-2.24.811.811 0 0 1 .474-1.551 49.01 49.01 0 0 1 6.081 2.317.811.811 0 0 1-.338 1.548h.003zM13.646 48.308a.811.811 0 0 1-.278-1.573 48.781 48.781 0 0 1 23.676-2.433.811.811 0 0 1-.243 1.604 47.164 47.164 0 0 0-22.881 2.351.812.812 0 0 1-.274.051z" fill="#121212"/><path d="M41.662 42.9a.81.81 0 0 1-.79-.994A53.06 53.06 0 0 0 42.163 30c0-14.504-5.57-26.757-12.163-26.757-6.053 0-11.233 9.959-12.05 23.165a.812.812 0 0 1-1.621-.1c.887-14.304 6.635-24.687 13.672-24.687 7.729 0 13.783 12.465 13.783 28.379a54.627 54.627 0 0 1-1.334 12.271.811.811 0 0 1-.79.629zM30 58.378c-4.597 0-8.859-4.603-11.4-12.313a50.315 50.315 0 0 1-2.27-12.373.813.813 0 0 1 1.621-.102 48.637 48.637 0 0 0 2.19 11.967c2.31 7.013 5.996 11.2 9.859 11.2 3.193 0 6.345-2.938 8.65-8.06a.811.811 0 1 1 1.479.665c-2.616 5.814-6.213 9.016-10.129 9.016z" fill="#121212"/><path d="M29.998 58.378a.811.811 0 0 1-.81-.811V2.432a.81.81 0 1 1 1.621 0v55.135a.81.81 0 0 1-.81.81zM13.378 30.811H2.432a.81.81 0 1 1 0-1.622h10.946a.811.811 0 0 1 0 1.622z" fill="#121212"/><path d="M57.566 30.811H20.674a.81.81 0 1 1 0-1.622h36.892a.81.81 0 1 1 0 1.622z" fill="#121212"/><path d="M7.8 47.164a.812.812 0 0 1-.653-.329 28.396 28.396 0 0 1 2.278-36.383A28.39 28.39 0 0 1 47.29 7.489a.811.811 0 0 1-.99 1.285A26.757 26.757 0 0 0 3.244 30a26.554 26.554 0 0 0 5.21 15.872.81.81 0 0 1-.65 1.292H7.8zM56.912 36.836a.81.81 0 0 1-.792-.987c.424-1.92.638-3.882.637-5.849a26.513 26.513 0 0 0-5.476-16.226.81.81 0 1 1 1.288-.985 28.114 28.114 0 0 1 5.81 17.212c0 2.085-.226 4.164-.676 6.2a.81.81 0 0 1-.79.635zM29.998 58.378a28.04 28.04 0 0 1-17.645-6.152.811.811 0 1 1 1.01-1.268 26.757 26.757 0 0 0 36.034-2.527 25.901 25.901 0 0 0 2.757-3.443.81.81 0 1 1 1.349.9 27.541 27.541 0 0 1-2.933 3.66 28.108 28.108 0 0 1-20.572 8.83zM54.95 42.551a.81.81 0 0 1-.73-1.16c.243-.513.47-1.037.673-1.556a.81.81 0 1 1 1.511.586 23.717 23.717 0 0 1-.722 1.67.811.811 0 0 1-.733.46z" fill="#121212"/><path d="M49.526 15.001a4.46 4.46 0 1 1 0-8.92 4.46 4.46 0 0 1 0 8.92zm0-7.297a2.838 2.838 0 1 0 0 5.676 2.838 2.838 0 0 0 0-5.676zM17.026 34.46a4.46 4.46 0 1 1 0-8.92 4.46 4.46 0 0 1 0 8.92zm0-7.297a2.838 2.838 0 1 0 0 5.676 2.838 2.838 0 0 0 0-5.676zM10.315 53.446a4.46 4.46 0 1 1 0-8.919 4.46 4.46 0 0 1 0 8.92zm0-7.297a2.838 2.838 0 1 0 0 5.676 2.838 2.838 0 0 0 0-5.676zM40.541 50.026a4.46 4.46 0 1 1 0-8.92 4.46 4.46 0 0 1 0 8.92zm0-7.297a2.838 2.838 0 1 0 0 5.676 2.838 2.838 0 0 0 0-5.676z" fill="#121212"/></svg>