<svg width="60" height="60" fill="none" xmlns="http://www.w3.org/2000/svg"><path d="M30 58.378a.81.81 0 0 1-.263-.044 25.42 25.42 0 0 1-5.255-2.61A35.154 35.154 0 0 1 8.26 25.76V11.724a.81.81 0 0 1 .783-.811c8.217-.287 15.068-3.325 20.362-9.033a.81.81 0 0 1 .584-.26c.22.006.43.092.59.243a29.748 29.748 0 0 0 20.389 9.05.811.811 0 0 1 .77.811V25.76a35.154 35.154 0 0 1-16.22 29.963 25.416 25.416 0 0 1-5.255 2.61.809.809 0 0 1-.263.045zM9.882 12.498V25.76A33.542 33.542 0 0 0 25.35 54.353 24.36 24.36 0 0 0 30 56.707a24.367 24.367 0 0 0 4.65-2.35A33.542 33.542 0 0 0 50.118 25.76V12.486A31.203 31.203 0 0 1 30.016 3.59 29.538 29.538 0 0 1 9.882 12.5z" fill="#121212"/><path d="M27.95 42.44a.81.81 0 0 1-.81-.851l.461-9.188-5.787-.567a.81.81 0 0 1-.528-1.346l11.948-13.466a.81.81 0 0 1 1.413.62l-.93 9.251 4.68 1.784a.81.81 0 0 1 .335 1.277L28.573 42.148a.811.811 0 0 1-.622.292zm-4.395-12.067 4.974.486a.81.81 0 0 1 .73.847l-.378 7.537 7.879-9.455-4.202-1.602a.811.811 0 0 1-.518-.84l.742-7.378-9.227 10.405z" fill="#121212"/></svg>