<svg width="60" height="46" fill="none" xmlns="http://www.w3.org/2000/svg"><path d="M12.501 9A4.5 4.5 0 1 1 17 4.5 4.509 4.509 0 0 1 12.501 9zm0-7.746A3.248 3.248 0 1 0 15.748 4.5 3.256 3.256 0 0 0 12.5 1.254zM15 46a2.292 2.292 0 0 1-1.52-.573 2.343 2.343 0 0 1-.773-1.445 83.511 83.511 0 0 0-2.137-11.376L7.58 43.85a2.437 2.437 0 0 1-1.148 1.464c-.56.314-1.22.391-1.836.213a2.42 2.42 0 0 1-1.446-1.162 2.468 2.468 0 0 1-.211-1.857l1.895-7.49L5.887 18.53l-.615.818-1.1 5.681a2.106 2.106 0 0 1-.675 1.357 2.077 2.077 0 0 1-2.938-.139 2.126 2.126 0 0 1-.553-1.6A60.66 60.66 0 0 1 1.84 16.45c1.909-3.953 4.294-6.105 7.091-6.397 2.706-.289 5.969.576 7.082 3.823a49.348 49.348 0 0 1 1.565 5.679 24.212 24.212 0 0 0 2.964 4.201 2.239 2.239 0 0 1 .436 1.673 2.245 2.245 0 0 1-.88 1.485 2.19 2.19 0 0 1-1.663.4 2.186 2.186 0 0 1-1.445-.927l-2.629-3.64v3.856l2.92 16.689c.094.593-.041 1.2-.377 1.695a2.316 2.316 0 0 1-1.428.966A2.32 2.32 0 0 1 15 46zm-4.565-15.858a.6.6 0 0 1 .485.252c1.165 1.621 2.265 8.193 2.981 13.42a1.121 1.121 0 0 0 .459.76 1.092 1.092 0 0 0 1.54-.282c.16-.234.225-.522.183-.804l-2.928-16.785-.01-5.838a.617.617 0 0 1 .414-.581.599.599 0 0 1 .676.213l3.731 5.17a.981.981 0 0 0 1.382.235 1.011 1.011 0 0 0 .233-1.398c-.689-.84-3.003-3.732-3.2-4.715a47.478 47.478 0 0 0-1.523-5.522c-1.137-3.32-5.039-3.086-5.813-3.006-2.354.246-4.415 2.17-6.128 5.719a60.557 60.557 0 0 0-1.706 7.818.879.879 0 0 0 .242.612.881.881 0 0 0 .941.235.883.883 0 0 0 .41-.302.9.9 0 0 0 .177-.48l1.138-5.897a.59.59 0 0 1 .112-.254l1.915-2.542a.605.605 0 0 1 .698-.21.607.607 0 0 1 .392.621l-1.2 18.624-1.92 7.613c-.079.293-.047.606.09.876a1.202 1.202 0 0 0 1.6.537 1.203 1.203 0 0 0 .619-.727l3.433-12.909a.614.614 0 0 1 .577-.453zM47.5 9A4.5 4.5 0 1 0 43 4.5 4.509 4.509 0 0 0 47.5 9zm0-7.746A3.248 3.248 0 1 1 44.252 4.5 3.257 3.257 0 0 1 47.5 1.254zM45.022 45.998a2.29 2.29 0 0 0 1.518-.574c.421-.371.696-.884.772-1.444a83.357 83.357 0 0 1 2.131-11.378l2.986 11.245c.176.623.588 1.15 1.147 1.464a2.38 2.38 0 0 0 1.831.214 2.415 2.415 0 0 0 1.445-1.162c.31-.566.386-1.234.21-1.857l-1.893-7.49-1.051-16.487.614.817 1.103 5.681c.05.522.29 1.005.675 1.356.383.352.882.545 1.4.542a2.067 2.067 0 0 0 1.532-.678 2.124 2.124 0 0 0 .552-1.6 60.926 60.926 0 0 0-1.832-8.198c-1.905-3.952-4.286-6.105-7.076-6.397-2.705-.29-5.959.576-7.069 3.823a49.176 49.176 0 0 0-1.564 5.678 24.241 24.241 0 0 1-2.956 4.201 2.24 2.24 0 0 0-.48 1.691 2.248 2.248 0 0 0 .881 1.517 2.183 2.183 0 0 0 1.691.395 2.18 2.18 0 0 0 .822-.335c.25-.167.462-.384.625-.637l2.623-3.639v3.855L42.745 43.29a2.369 2.369 0 0 0 .52 1.888c.217.258.486.465.79.607.303.142.633.216.967.216v-.002zM49.58 30.14a.598.598 0 0 0-.484.252c-1.227 1.715-2.39 9.14-2.975 13.419a1.123 1.123 0 0 1-.458.759 1.09 1.09 0 0 1-1.537-.28 1.128 1.128 0 0 1-.182-.805l2.921-16.784.008-5.838a.606.606 0 0 0-.784-.585.605.605 0 0 0-.303.218l-3.729 5.177a.994.994 0 0 1-.643.425.975.975 0 0 1-.75-.17.998.998 0 0 1-.403-.662 1.016 1.016 0 0 1 .186-.756c.685-.84 2.995-3.733 3.192-4.714.396-1.87.904-3.713 1.52-5.52 1.136-3.32 5.033-3.088 5.802-3.007 2.348.245 4.405 2.169 6.116 5.718a60.629 60.629 0 0 1 1.718 7.809.91.91 0 0 1-.259.636.885.885 0 0 1-.627.267.877.877 0 0 1-.6-.242.9.9 0 0 1-.278-.591l-1.135-5.897a.618.618 0 0 0-.111-.255l-1.914-2.54a.604.604 0 0 0-.693-.202.618.618 0 0 0-.39.612l1.197 18.623 1.912 7.608c.08.293.047.605-.09.875a1.202 1.202 0 0 1-1.127.66 1.185 1.185 0 0 1-.852-.42 1.223 1.223 0 0 1-.235-.429l-3.426-12.908a.615.615 0 0 0-.474-.442.548.548 0 0 0-.113-.011z" fill="#121212"/><path fill-rule="evenodd" clip-rule="evenodd" d="M22.068 16.52h15.864v11.6c0 .486-.375.88-.839.88H22.907c-.464 0-.84-.394-.84-.88v-11.6zm1.068 1.12v10.24h13.728V17.64H23.136z" fill="#121212"/><path fill-rule="evenodd" clip-rule="evenodd" d="M21 13.72c0-.398.307-.72.686-.72h16.628c.379 0 .686.322.686.72v3.36c0 .398-.307.72-.686.72H21.686c-.379 0-.686-.322-.686-.72v-3.36zm1.068.4v2.56h15.864v-2.56H22.068zM26.186 20.52c0-.972.752-1.76 1.678-1.76h4.272c.926 0 1.678.788 1.678 1.76s-.752 1.76-1.678 1.76h-4.272c-.926 0-1.678-.788-1.678-1.76zm1.678-.64c-.337 0-.61.287-.61.64 0 .354.273.64.61.64h4.272c.337 0 .61-.287.61-.64 0-.354-.273-.64-.61-.64h-4.272z" fill="#121212"/></svg>