<svg width="60" height="60" fill="none" xmlns="http://www.w3.org/2000/svg"><path d="M30.03 53.513H5.873a2.288 2.288 0 0 1-2.285-2.285V17.893a2.288 2.288 0 0 1 2.285-2.285h24.155a2.288 2.288 0 0 1 2.285 2.285v33.335a2.289 2.289 0 0 1-2.285 2.285zM5.873 17.23a.664.664 0 0 0-.664.663v33.335a.664.664 0 0 0 .664.664h24.155a.664.664 0 0 0 .664-.664V17.893a.665.665 0 0 0-.664-.663H5.874z" fill="#121212"/><path d="M28.361 28.703H7.541a.811.811 0 0 1-.812-.811V19.72a.811.811 0 0 1 .811-.811h20.821a.81.81 0 0 1 .81.81v8.172a.81.81 0 0 1-.81.81zM8.351 27.08h19.2v-6.55H8.35v6.55zM11.351 36.4h-3.81a.81.81 0 0 1-.812-.81v-3.81a.811.811 0 0 1 .811-.812h3.811a.81.81 0 0 1 .81.811v3.81a.81.81 0 0 1-.81.812zm-3-1.62h2.19v-2.19H8.35v2.19zM19.856 36.4h-3.81a.81.81 0 0 1-.812-.81v-3.811a.81.81 0 0 1 .811-.81h3.811a.81.81 0 0 1 .81.81v3.81a.81.81 0 0 1-.81.812zm-3-1.621h2.19v-2.19h-2.19v2.19zM28.36 36.4h-3.81a.81.81 0 0 1-.81-.81v-3.81a.811.811 0 0 1 .81-.812h3.81a.81.81 0 0 1 .812.811v3.81a.81.81 0 0 1-.811.812zm-3-1.62h2.19v-2.19h-2.19v2.19zM11.351 43.403h-3.81a.811.811 0 0 1-.812-.811V38.78a.81.81 0 0 1 .811-.81h3.811a.81.81 0 0 1 .81.81v3.81a.81.81 0 0 1-.81.812zm-3-1.622h2.19v-2.19H8.35v2.19zM19.856 43.403h-3.81a.81.81 0 0 1-.812-.811v-3.81a.81.81 0 0 1 .811-.812h3.811a.81.81 0 0 1 .81.811v3.81a.81.81 0 0 1-.81.812zm-3-1.622h2.19v-2.19h-2.19v2.19zM28.36 43.403h-3.81a.811.811 0 0 1-.81-.811V38.78a.811.811 0 0 1 .81-.81h3.81a.81.81 0 0 1 .812.81v3.81a.81.81 0 0 1-.811.812zm-3-1.622h2.19v-2.19h-2.19v2.19zM11.351 50.405h-3.81a.81.81 0 0 1-.812-.811v-3.811a.811.811 0 0 1 .811-.81h3.811a.81.81 0 0 1 .81.81v3.81a.81.81 0 0 1-.81.812zm-3-1.622h2.19v-2.19H8.35v2.19zM19.856 50.405h-3.81a.81.81 0 0 1-.812-.811v-3.811a.81.81 0 0 1 .811-.81h3.811a.81.81 0 0 1 .81.81v3.81a.81.81 0 0 1-.81.812zm-3-1.622h2.19v-2.19h-2.19v2.19zM28.36 50.405h-3.81a.81.81 0 0 1-.81-.811v-3.811a.811.811 0 0 1 .81-.81h3.81a.81.81 0 0 1 .812.81v3.81a.81.81 0 0 1-.811.812zm-3-1.622h2.19v-2.19h-2.19v2.19z" fill="#121212"/><path d="M55.6 58.378H13.975a.81.81 0 0 1-.81-.81v-4.865a.81.81 0 1 1 1.62 0v4.054H54.79v-42.43H44.517a.81.81 0 0 1-.81-.81V3.242H14.784V16.42a.81.81 0 1 1-1.622 0V2.432a.81.81 0 0 1 .81-.81h30.544a.811.811 0 0 1 .81.81v10.273h10.274a.811.811 0 0 1 .81.811v44.052a.811.811 0 0 1-.81.81z" fill="#121212"/><path d="M55.597 14.327H44.522a.81.81 0 0 1-.811-.811V2.432a.811.811 0 0 1 1.384-.573l11.076 11.084a.811.811 0 0 1-.574 1.384zm-10.264-1.622h8.308l-8.308-8.314v8.314zM34.788 10.438H20.903a.81.81 0 1 1 0-1.621h13.885a.81.81 0 1 1 0 1.621zM50.058 21.756H31.502a.81.81 0 1 1 0-1.622h18.556a.81.81 0 1 1 0 1.622zM50.058 28.702H31.502a.81.81 0 1 1 0-1.621h18.556a.811.811 0 1 1 0 1.621zM50.058 35.644H31.502a.81.81 0 1 1 0-1.621h18.556a.811.811 0 1 1 0 1.621zM50.058 42.587H31.502a.81.81 0 1 1 0-1.621h18.556a.81.81 0 1 1 0 1.621zM50.058 49.53H31.502a.81.81 0 1 1 0-1.62h18.556a.81.81 0 1 1 0 1.62z" fill="#121212"/></svg>