<svg width="60" height="60" fill="none" xmlns="http://www.w3.org/2000/svg"><path d="M12.623 46.24H7.598a2.35 2.35 0 0 1-2.348-2.347V19.608a2.25 2.25 0 0 1 2.25-2.25h5.588a.75.75 0 1 1 0 1.5H7.5a.75.75 0 0 0-.75.75v24.285a.848.848 0 0 0 .848.848h5.025a.75.75 0 1 1 0 1.5zM33.909 46.24H20.754a.75.75 0 1 1 0-1.5h13.155a.849.849 0 0 0 .847-.847V19.608a.75.75 0 0 0-.75-.75h-5.595a.75.75 0 1 1 0-1.5h5.595a2.25 2.25 0 0 1 2.25 2.25v24.285a2.35 2.35 0 0 1-2.347 2.348z" fill="#121212"/><path d="M40.686 46.245h-1.984a3.953 3.953 0 0 1-3.95-3.95.75.75 0 1 1 1.5 0 2.451 2.451 0 0 0 2.45 2.45h1.983a.75.75 0 0 1 0 1.5h.001zM50.8 46.244h-1.99a.75.75 0 1 1 0-1.5h1.99a2.452 2.452 0 0 0 2.45-2.449v-4.021a4.068 4.068 0 0 0-.912-2.559l-6.278-7.709a4.039 4.039 0 0 0-3.144-1.49h-7.414a.75.75 0 0 1 0-1.5h7.414a5.528 5.528 0 0 1 4.308 2.044l6.278 7.709a5.574 5.574 0 0 1 1.248 3.505v4.021a3.953 3.953 0 0 1-3.95 3.949z" fill="#000"/><path d="M54.001 38.914H41.493a2.353 2.353 0 0 1-2.35-2.35v-5.837a2.352 2.352 0 0 1 2.35-2.349h6.446a.75.75 0 1 1 0 1.5h-6.446a.85.85 0 0 0-.85.85v5.837a.85.85 0 0 0 .85.85h12.508a.75.75 0 0 1 0 1.5zM44.747 50.307a4.813 4.813 0 1 1 0-9.625 4.813 4.813 0 0 1 0 9.625zm0-8.126a3.313 3.313 0 1 0 0 6.626 3.313 3.313 0 0 0 0-6.626zM16.69 50.307a4.812 4.812 0 1 1 0-9.624 4.812 4.812 0 0 1 0 9.624zm0-8.125a3.313 3.313 0 1 0 0 6.626 3.313 3.313 0 0 0 0-6.626zM20.755 26.515a8.411 8.411 0 1 1 8.407-8.407 8.421 8.421 0 0 1-8.407 8.407zm0-15.322a6.912 6.912 0 1 0 6.907 6.915 6.922 6.922 0 0 0-6.907-6.915z" fill="#000"/><path d="M23.779 21.884a.746.746 0 0 1-.529-.22l-3.026-3.026a.75.75 0 0 1-.169-.803l1.075-2.76a.75.75 0 1 1 1.397.543l-.9 2.309 2.68 2.68a.75.75 0 0 1-.53 1.28l.002-.003zM20.754 12.925a.75.75 0 0 1-.75-.75v-1.732a.75.75 0 1 1 1.5 0v1.732a.75.75 0 0 1-.75.75zM20.754 26.516a.75.75 0 0 1-.75-.75v-1.73a.75.75 0 1 1 1.5 0v1.73a.75.75 0 0 1-.75.75zM28.416 18.854h-1.732a.75.75 0 1 1 0-1.5h1.732a.75.75 0 1 1 0 1.5zM14.825 18.854h-1.732a.75.75 0 1 1 0-1.5h1.732a.75.75 0 1 1 0 1.5z" fill="#000"/></svg>