<svg width="60" height="60" fill="none" xmlns="http://www.w3.org/2000/svg"><path d="M54.326 48.649H5.677a4.054 4.054 0 0 1-4.054-4.054V5.675a4.054 4.054 0 0 1 4.054-4.053h48.649a4.054 4.054 0 0 1 4.054 4.054v38.919a4.054 4.054 0 0 1-4.054 4.054zM5.677 3.243a2.432 2.432 0 0 0-2.432 2.433v38.919a2.432 2.432 0 0 0 2.432 2.432h48.649a2.432 2.432 0 0 0 2.432-2.432V5.675a2.432 2.432 0 0 0-2.432-2.432H5.677z" fill="#121212"/><path d="M57.569 38.108H2.434a.811.811 0 1 1 0-1.622h55.135a.811.811 0 0 1 0 1.622zM12.503 43.225H9.155a.811.811 0 1 1 0-1.622h3.348a.811.811 0 0 1 0 1.622zM43.443 58.379H16.557a.81.81 0 0 1-.722-1.184l5.003-9.73a.81.81 0 0 1 .721-.438H38.44a.81.81 0 0 1 .722.438l5.003 9.73a.811.811 0 0 1-.722 1.184zm-25.557-1.622h24.227l-4.167-8.108H22.054l-4.168 8.108zM40.136 32.838h-20.27a.81.81 0 0 1-.811-.81V7.702a.81.81 0 0 1 .81-.81h20.27a.81.81 0 0 1 .812.81v24.324a.81.81 0 0 1-.811.811zm-19.46-1.622h18.649V8.514H20.676v22.702z" fill="#121212"/><path d="M34.053 22.564h-8.108a.81.81 0 0 1-.811-.81V20.35a2.846 2.846 0 0 1 2.838-2.846h4.054a2.845 2.845 0 0 1 2.837 2.846v1.402a.81.81 0 0 1-.81.811zm-7.298-1.621h6.487v-.592a1.224 1.224 0 0 0-1.216-1.224h-4.054a1.224 1.224 0 0 0-1.217 1.224v.592zM30.001 16.298a2.878 2.878 0 1 1 0-5.756 2.878 2.878 0 0 1 0 5.756zm0-4.135a1.257 1.257 0 1 0 0 2.513 1.257 1.257 0 0 0 0-2.513zM36.69 27.113H23.31a.81.81 0 1 1 0-1.622h13.38a.81.81 0 1 1 0 1.622z" fill="#121212"/></svg>