<svg width="60" height="60" fill="none" xmlns="http://www.w3.org/2000/svg"><path d="M25.125 45.902a.81.81 0 0 1-.748-.496l-2.824-6.791a.811.811 0 0 1 .177-.888l1.955-1.939a.81.81 0 0 1 1.099-.04l5.545 4.767a.808.808 0 0 1 0 1.233l-4.675 3.964a.81.81 0 0 1-.529.19zm-1.864-7.41 2.189 5.263 3.104-2.632-4.256-3.659-1.037 1.028z" fill="#121212"/><path d="M34.477 45.902a.811.811 0 0 1-.524-.193l-4.676-3.964a.81.81 0 0 1 0-1.233l5.544-4.766a.811.811 0 0 1 1.087.028l2.038 1.94a.812.812 0 0 1 .186.906l-2.91 6.79a.81.81 0 0 1-.745.492zm-3.423-4.78 3.114 2.64 2.254-5.262-1.099-1.046-4.269 3.669zM39.881 31.993a.811.811 0 0 1-.018-1.622c.993-.022 3.571-1.254 3.851-3.44a2.31 2.31 0 0 0-.316-1.746 2.782 2.782 0 0 0-1.89-.795.811.811 0 1 1 .185-1.612c1.14.061 2.21.567 2.983 1.408a3.836 3.836 0 0 1 .648 2.953c-.399 3.116-3.742 4.816-5.423 4.854h-.02zM19.751 31.993h-.018c-1.68-.038-5.027-1.738-5.424-4.854a3.839 3.839 0 0 1 .649-2.953 4.366 4.366 0 0 1 2.982-1.408.811.811 0 0 1 .184 1.612c-.708.015-1.384.3-1.89.795a2.312 2.312 0 0 0-.316 1.747c.28 2.184 2.858 3.417 3.851 3.44a.811.811 0 0 1-.018 1.621z" fill="#121212"/><path d="M29.817 39.115c-3.05 0-6.08-1.56-8.53-4.391a15.83 15.83 0 0 1-3.681-10.46l.016-2.32c0-.053.006-.105.017-.157l.48-2.345a3.687 3.687 0 0 1 3.205-2.783 43.15 43.15 0 0 0 8.27-1.821c5.77-1.784 9.772-.306 11.27 4.15l.78 3.287c-.006-.034.023-.008.063 0a.811.811 0 0 1 .694.802v1.148c-.375 7.049-5.834 14.89-12.584 14.89zm-10.574-17.08-.015 2.24a14.202 14.202 0 0 0 3.288 9.39c2.134 2.468 4.729 3.828 7.298 3.828 5.773 0 10.634-7.157 10.962-13.316v-.561a1.665 1.665 0 0 1-.7-.921l-.773-3.267c-1.482-4.399-5.838-4.09-9.233-3.044a44.63 44.63 0 0 1-8.6 1.89 2.05 2.05 0 0 0-1.778 1.54l-.45 2.22z" fill="#121212"/><path d="M41.706 23.891a1.237 1.237 0 0 1-.312-.032 1.667 1.667 0 0 1-1.315-1.164l-.772-3.267c-1.482-4.399-5.838-4.09-9.233-3.044a44.684 44.684 0 0 1-8.6 1.89 2.049 2.049 0 0 0-1.778 1.54l-.469 2.3a1.527 1.527 0 0 1-2.452.886 1.553 1.553 0 0 1-.548-.852s-.704-2.364-1.227-4.414a12.826 12.826 0 0 1-.162-.77A12.291 12.291 0 0 1 20.72 4.39c2.802-1.708 6-2.66 9.279-2.767 1.575.034 3.135.31 4.627.815a14.27 14.27 0 0 1 9.395 16.286c-.3 1.578-.62 3.666-.623 3.687a1.692 1.692 0 0 1-1.693 1.481zm-7.741-9.793c3.424 0 5.817 1.662 6.9 4.886l.778 3.286c-.005-.033.024-.007.064 0a.09.09 0 0 0 .081-.07c.008-.055.333-2.171.638-3.778A12.649 12.649 0 0 0 34.124 3.98c-1.33-.45-2.72-.699-4.124-.737-2.989.102-5.9.976-8.451 2.536a10.657 10.657 0 0 0-5.124 10.884c.044.222.091.45.146.68.411 1.608.94 3.422 1.135 4.1l.406-2a3.688 3.688 0 0 1 3.212-2.784c2.81-.334 5.58-.944 8.27-1.821a14.96 14.96 0 0 1 4.37-.74zM54.02 58.378H5.98a.811.811 0 0 1-.811-.81v-2.725a17.376 17.376 0 0 1 17.07-17.351H22.528a.81.81 0 1 1 0 1.622 15.752 15.752 0 0 0-15.737 15.73v1.913h46.418v-1.914a15.748 15.748 0 0 0-15.73-15.73h-.093a.81.81 0 1 1 0-1.621h.094A17.372 17.372 0 0 1 54.83 54.843v2.725a.81.81 0 0 1-.81.81z" fill="#121212"/><path d="M45.405 58.378h-30.81a.81.81 0 0 1-.811-.81v-7.906a.81.81 0 1 1 1.621 0v7.095h29.19v-7.095a.81.81 0 1 1 1.621 0v7.906a.811.811 0 0 1-.81.81zM40.5 36.1c-.14 0-.28-.01-.418-.032l-8.405-1.28a.811.811 0 1 1 .243-1.603l8.404 1.28a1.164 1.164 0 0 0 .937-.27 1.178 1.178 0 0 0 .41-.893v-3.145a.81.81 0 1 1 1.621 0v3.145a2.8 2.8 0 0 1-2.794 2.798h.001z" fill="#121212"/><path d="M30.283 35.805a2.461 2.461 0 1 1 0-4.923 2.461 2.461 0 0 1 0 4.923zm0-3.303a.84.84 0 1 0 0 1.681.84.84 0 0 0 0-1.68z" fill="#121212"/></svg>